<svg
  xmlns="http://www.w3.org/2000/svg"
  width="16.258"
  height="16.258"
  viewBox="0 0 16.258 16.258"
>
  <g id="Group_36" data-name="Group 36" transform="translate(-787.58 -587.67)">
    <g id="Rectangle-3" transform="translate(787.58 587.67)">
      <path
        id="Path_47"
        data-name="Path 47"
        d="M803.16,595.121h-2.073a5.428,5.428,0,0,0-4.708-4.7.085.085,0,0,0,.007-.041v-2.54a.172.172,0,0,0-.169-.169h-.508a.675.675,0,0,0-.677.677v2.073a5.428,5.428,0,0,0-4.7,4.708.086.086,0,0,0-.041-.007h-2.54a.168.168,0,0,0-.169.169v.508a.675.675,0,0,0,.677.677h2.073a5.428,5.428,0,0,0,4.708,4.7.087.087,0,0,0-.007.041v2.54a.168.168,0,0,0,.169.169h.508a.679.679,0,0,0,.677-.677v-2.073a5.435,5.435,0,0,0,4.7-4.708.085.085,0,0,0,.041.007h2.54a.172.172,0,0,0,.169-.169V595.8A.679.679,0,0,0,803.16,595.121Zm-7.451,4.911a4.234,4.234,0,1,1,4.234-4.234A4.235,4.235,0,0,1,795.709,600.032Z"
        transform="translate(-787.58 -587.67)"
        fill="#292929"
      />
    </g>
    <g
      id="Oval_6_Copy_6"
      data-name="Oval 6 Copy 6"
      transform="translate(789.459 589.549)"
    >
      <g id="Group_33" data-name="Group 33">
        <circle
          id="Ellipse_9"
          data-name="Ellipse 9"
          cx="6.25"
          cy="6.25"
          r="6.25"
          fill="none"
        />
      </g>
    </g>
    <g
      id="Oval_6_Copy_6-2"
      data-name="Oval 6 Copy 6-2"
      transform="translate(793.709 593.799)"
    >
      <g id="Group_34" data-name="Group 34">
        <circle
          id="Ellipse_10"
          data-name="Ellipse 10"
          cx="2"
          cy="2"
          r="2"
          transform="translate(0 0)"
          fill="none"
        />
      </g>
      <g id="Group_35" data-name="Group 35" transform="translate(0.279 0.282)">
        <path
          id="Path_48"
          data-name="Path 48"
          d="M798.293,600.108a1.719,1.719,0,1,1,1.718-1.719A1.721,1.721,0,0,1,798.293,600.108Zm0-2.435a.716.716,0,1,0,.716.716A.717.717,0,0,0,798.293,597.674Z"
          transform="translate(-796.575 -596.671)"
          fill="#292929"
        />
      </g>
    </g>
  </g>
</svg>
